<?xml version="1.0" encoding="UTF-8" standalone="no"?><!DOCTYPE svg PUBLIC "-//W3C//DTD SVG 1.1//EN" "http://www.w3.org/Graphics/SVG/1.1/DTD/svg11.dtd"><svg width="100%" height="100%" viewBox="0 0 75 75" version="1.1" xmlns="http://www.w3.org/2000/svg" xmlns:xlink="http://www.w3.org/1999/xlink" xml:space="preserve" xmlns:serif="http://www.serif.com/" style="fill-rule:evenodd;clip-rule:evenodd;stroke-linecap:round;stroke-linejoin:round;stroke-miterlimit:1.5;"><path d="M28,10.052c0,-2.833 -2.3,-5.134 -5.133,-5.134l-10.267,0c-2.833,0 -5.133,2.301 -5.133,5.134l0,14.454c0,2.833 2.3,5.133 5.133,5.133l10.267,0c2.833,0 5.133,-2.3 5.133,-5.133l0,-14.454Z" style="fill:#ebebeb;stroke:#000;stroke-width:2.5px;"/><path d="M27.533,49.412c-0,-2.833 -2.3,-5.133 -5.133,-5.133l-10.267,-0c-2.833,-0 -5.133,2.3 -5.133,5.133l-0,14.455c-0,2.833 2.3,5.133 5.133,5.133l10.267,0c2.833,0 5.133,-2.3 5.133,-5.133l-0,-14.455Z" style="fill:#ebebeb;stroke:#000;stroke-width:2.5px;"/><path d="M66.266,10.052c0,-2.833 -2.3,-5.134 -5.133,-5.134l-10.266,0c-2.833,0 -5.133,2.301 -5.133,5.134l-0,14.454c-0,2.833 2.3,5.133 5.133,5.133l10.266,0c2.833,0 5.133,-2.3 5.133,-5.133l0,-14.454Z" style="fill:#ebebeb;stroke:#000;stroke-width:2.5px;"/><path d="M28.568,18.441l-0,-2.324l13.112,0l0,-2.158l3.32,3.32l-3.32,3.32l0,-2.158l-13.112,-0Z" style="fill:#0c0c0c;stroke:#000;stroke-width:1.46px;"/><path d="M55.626,29.639l2.324,0.02l-0.079,9.643l2.157,0.018l-3.347,3.292l-3.292,-3.347l2.158,0.018l0.079,-9.644Z" style="fill:#0c0c0c;stroke:#000;stroke-width:1.46px;"/><path d="M67,49.412c0,-2.833 -2.3,-5.133 -5.133,-5.133l-10.267,-0c-2.833,-0 -5.133,2.3 -5.133,5.133l0,14.455c0,2.833 2.3,5.133 5.133,5.133l10.267,0c2.833,0 5.133,-2.3 5.133,-5.133l0,-14.455Z" style="fill:#ebebeb;stroke:#000;stroke-width:2.5px;"/><path d="M45.235,55.622l-0.04,2.324l-13.111,-0.231l-0.038,2.158l-3.261,-3.378l3.378,-3.261l-0.038,2.158l13.11,0.23Z" style="fill:#0c0c0c;stroke:#000;stroke-width:1.46px;"/><path d="M60.254,56.068l-5.491,3.763l-0.017,-7.5l5.508,3.737Z" style="fill:#0c0c0c;stroke:#000;stroke-width:2.5px;"/><text x="10.897px" y="63.5px" style="font-family:'Arial-BoldMT', 'Arial', sans-serif;font-weight:700;font-size:20.52px;">?</text><path d="M58.5,13l3.5,6.779l-7,-0l3.5,-6.779Z" style="fill:#0c0c0c;stroke:#000;stroke-width:2.5px;"/><path d="M53.5,14.356l3,5.423l-6,-0l3,-5.423Z" style="fill:#0c0c0c;stroke:#000;stroke-width:2.5px;"/><g><rect x="13.234" y="13.529" width="9" height="1" style="fill:#0c0c0c;stroke:#000;stroke-width:2.5px;"/><rect x="13.234" y="20.029" width="9" height="1" style="fill:#0c0c0c;stroke:#000;stroke-width:2.5px;"/></g></svg>