<?xml version="1.0" encoding="UTF-8" standalone="no"?><!DOCTYPE svg PUBLIC "-//W3C//DTD SVG 1.1//EN" "http://www.w3.org/Graphics/SVG/1.1/DTD/svg11.dtd"><svg width="100%" height="100%" viewBox="0 0 310 310" version="1.1" xmlns="http://www.w3.org/2000/svg" xmlns:xlink="http://www.w3.org/1999/xlink" xml:space="preserve" xmlns:serif="http://www.serif.com/" style="fill-rule:evenodd;clip-rule:evenodd;stroke-linecap:round;stroke-linejoin:round;stroke-miterlimit:1.5;"><path d="M116.667,41.882c-0,-11.804 -9.584,-21.388 -21.389,-21.388l-42.776,-0c-11.805,-0 -21.388,9.584 -21.388,21.388l-0,60.228c-0,11.804 9.583,21.388 21.388,21.388l42.776,-0c11.805,-0 21.389,-9.584 21.389,-21.388l-0,-60.228Z" style="fill:#ebebeb;stroke:#000;stroke-width:10.42px;"/><path d="M114.72,205.884c-0,-11.804 -9.584,-21.388 -21.389,-21.388l-42.776,-0c-11.805,-0 -21.388,9.584 -21.388,21.388l-0,60.228c-0,11.804 9.583,21.388 21.388,21.388l42.776,0c11.805,0 21.389,-9.584 21.389,-21.388l-0,-60.228Z" style="fill:#ebebeb;stroke:#000;stroke-width:10.42px;"/><path d="M276.11,41.882c-0,-11.804 -9.584,-21.388 -21.388,-21.388l-42.777,-0c-11.804,-0 -21.388,9.584 -21.388,21.388l-0,60.228c-0,11.804 9.584,21.388 21.388,21.388l42.777,-0c11.804,-0 21.388,-9.584 21.388,-21.388l-0,-60.228Z" style="fill:#ebebeb;stroke:#000;stroke-width:10.42px;"/><path d="M119.032,76.837l-0,-9.683l54.635,0l-0,-8.991l13.833,13.833l-13.833,13.833l-0,-8.992l-54.635,0Z" style="fill:#0c0c0c;stroke:#000;stroke-width:6.06px;"/><path d="M231.773,123.498l9.683,0.079l-0.329,40.181l8.991,0.074l-13.946,13.719l-13.719,-13.946l8.991,0.074l0.329,-40.181Z" style="fill:#0c0c0c;stroke:#000;stroke-width:6.06px;"/><path d="M279.167,205.884c-0,-11.804 -9.584,-21.388 -21.389,-21.388l-42.776,-0c-11.805,-0 -21.388,9.584 -21.388,21.388l-0,60.228c-0,11.804 9.583,21.388 21.388,21.388l42.776,0c11.805,0 21.389,-9.584 21.389,-21.388l-0,-60.228Z" style="fill:#ebebeb;stroke:#000;stroke-width:10.42px;"/><path d="M188.481,231.758l-0.17,9.682l-54.627,-0.959l-0.158,8.99l-13.588,-14.074l14.074,-13.588l-0.158,8.99l54.627,0.959Z" style="fill:#0c0c0c;stroke:#000;stroke-width:6.06px;"/><path d="M251.059,233.618l-22.882,15.676l-0.069,-31.25l22.951,15.574Z" style="fill:#0c0c0c;stroke:#000;stroke-width:10.42px;"/><text x="45.406px" y="264.583px" style="font-family:'Arial-BoldMT', 'Arial', sans-serif;font-weight:700;font-size:85.5px;">?</text><path d="M243.75,54.167l14.583,28.245l-29.166,0l14.583,-28.245Z" style="fill:#0c0c0c;stroke:#000;stroke-width:10.42px;"/><path d="M222.917,59.816l12.5,22.596l-25,0l12.5,-22.596Z" style="fill:#0c0c0c;stroke:#000;stroke-width:10.42px;"/><g><rect x="55.14" y="56.371" width="37.5" height="4.167" style="fill:#0c0c0c;stroke:#000;stroke-width:10.42px;"/><rect x="55.14" y="83.454" width="37.5" height="4.167" style="fill:#0c0c0c;stroke:#000;stroke-width:10.42px;"/></g></svg>